{"title":"Requiem For A Dream 2000 BDRip [H.264 - MP4 - AAC] ~Mindbreaker","uid":5275474,"size":1495311662,"categoryP":"video","categoryS":"movies","magnet":"?xt=urn:btih:72d3759eb6323c3a9880410e7c7307e086a143ac&amp;dn=Requiem+For+A+Dream+2000+BDRip+%5BH.264+-+MP4+-+AAC%5D+%7EMindbreaker&amp;tr=udp%3A%2F%2Ftracker.openbittorrent.com%3A80&amp;tr=udp%3A%2F%2Fopen.demonii.com%3A1337&amp;tr=udp%3A%2F%2Ftracker.coppersurfer.tk%3A6969&amp;tr=udp%3A%2F%2Fexodus.desync.com%3A6969","seeders":0,"leechers":1,"uploader":"mind3103","files":-1,"time":1263363746,"description":"imdb : http://www.imdb.com/title/tt0180093/\nTagline: From the director of [Pi] \nPlot: The hopes and dreams of four ambitious people are shattered when their drug addictions begin spiraling out of control. \nTotal Size : 1.40 GB\n\n\n[code]General\nComplete name : Requiem For A Dream 2000 BDRip [H.264 - MP4 - AAC] ~Mindbreaker.mp4\nFormat : H.264/AAC/MP4 - Anamophic\nSource : 720p Sinners\nFile size : 1.40 GiB\nDuration : 1h 41mn\nOverall bit rate : 1 963 Kbps\n\n\nVideo\nID : 1\nFormat : AVC\nFormat/Info : Advanced Video Codec\nFormat profile : &lt;a class=&quot;__cf_email__&quot; href=&quot;/cdn-cgi/l/email-protection&quot; data-cfemail=&quot;2d65444a456d611e031d&quot;&gt;[email&amp;#160;protected]&lt;/a&gt;&lt;script cf-hash='f9e31' type=&quot;text/javascript&quot;&gt;\n/* &lt;![CDATA[ */!function(){try{var t=&quot;currentScript&quot;in document?document.currentScript:function(){for(var t=document.getElementsByTagName(&quot;script&quot;),e=t.length;e--;)if(t[e].getAttribute(&quot;cf-hash&quot;))return t[e]}();if(t&amp;&amp;t.previousSibling){var e,r,n,i,c=t.previousSibling,a=c.getAttribute(&quot;data-cfemail&quot;);if(a){for(e=&quot;&quot;,r=parseInt(a.substr(0,2),16),n=2;a.length-n;n+=2)i=parseInt(a.substr(n,2),16)^r,e+=String.fromCharCode(i);e=document.createTextNode(e),c.parentNode.replaceChild(e,c)}}}catch(u){}}();/* ]]&gt; */&lt;/script&gt;\nDuration : 1h 41mn\nBit rate : 1800 Kbps\nWidth : 720 pixels\nHeight : 400 pixels\nDisplay aspect ratio : 1.78\nFrame rate : 23.976 fps\nBits/(Pixel*Frame) : 0.261\nStream size : 1.28 GiB (92%)\nWriting library : x264 core 80\n\nAudio\nID : 2\nFormat : AAC\nFormat/Info : Advanced Audio Codec\nFormat profile : LC\nDuration : 1h 41mn\nBit rate : 160 Kbps\nChannel(s) : 2 channels\nSampling rate : 48.0 KHz\nStream size : 116 MiB (8%)\nLanguage : English\n\nSubtitle\nFormat : SubRip\nLanguage : Dutch &amp; English\nSource : ondertitels.com &amp; opensubtitles.org\n &lt;a href=&quot;\nhttp://genesis.1337x.org:1337/announce&quot; rel=&quot;nofollow&quot; target=&quot;_NEW&quot;&gt;\nhttp://genesis.1337x.org:1337/announce&lt;/a&gt; &lt;a href=&quot;\nhttp://tracker.openbittorrent.com/announce&quot; rel=&quot;nofollow&quot; target=&quot;_NEW&quot;&gt;\nhttp://tracker.openbittorrent.com/announce&lt;/a&gt; &lt;a href=&quot;\nhttp://nemesis.1337x.org/announce&quot; rel=&quot;nofollow&quot; target=&quot;_NEW&quot;&gt;\nhttp://nemesis.1337x.org/announce&lt;/a&gt;\n\nFor any kind of question, suggestion or requests you can contact me on http://www.release-lounge.com\n\n\n","torrent":{"xt":"urn:btih:72d3759eb6323c3a9880410e7c7307e086a143ac","amp;dn":"Requiem+For+A+Dream+2000+BDRip+%5BH.264+-+MP4+-+AAC%5D+%7EMindbreaker","amp;tr":["udp%3A%2F%2Ftracker.openbittorrent.com%3A80","udp%3A%2F%2Fopen.demonii.com%3A1337","udp%3A%2F%2Ftracker.coppersurfer.tk%3A6969","udp%3A%2F%2Fexodus.desync.com%3A6969"],"infoHash":"72d3759eb6323c3a9880410e7c7307e086a143ac","infoHashBuffer":{"type":"Buffer","data":[114,211,117,158,182,50,60,58,152,128,65,14,124,115,7,224,134,161,67,172]},"announce":[],"urlList":[]}}